<svg width="14" height="15" viewBox="0 0 14 15" fill="none" xmlns="http://www.w3.org/2000/svg">
<path d="M9.08593 3.30152C7.66108 3.30152 6.48431 2.37666 4.6929 2.37666C4.02936 2.37666 3.43498 2.49322 2.88362 2.69608C2.96003 2.49651 2.99256 2.28283 2.97897 2.06958C2.93186 1.31348 2.31203 0.707 1.55508 0.676209C0.704405 0.641589 0.00390625 1.32095 0.00390625 2.16394C0.00390625 2.66983 0.256426 3.11651 0.642053 3.38559V13.6506C0.642053 14.003 0.927756 14.2887 1.2802 14.2887H1.70563C2.05807 14.2887 2.34378 14.003 2.34378 13.6506V11.1405C3.09655 10.8198 4.03439 10.5523 5.38654 10.5523C6.81141 10.5523 7.98816 11.4772 9.77957 11.4772C11.0604 11.4772 12.084 11.0439 13.0369 10.3908C13.2678 10.2326 13.405 9.96983 13.405 9.68995V3.22606C13.405 2.60405 12.7597 2.19252 12.1956 2.45454C11.2825 2.87859 10.1627 3.30152 9.08593 3.30152V3.30152Z" fill="#36CD45"/>
</svg>
