<svg width="14" height="15" viewBox="0 0 14 15" fill="none" xmlns="http://www.w3.org/2000/svg">
<path d="M9.20702 3.30152C7.78217 3.30152 6.6054 2.37666 4.81399 2.37666C4.15046 2.37666 3.55607 2.49322 3.00472 2.69608C3.08113 2.49651 3.11365 2.28283 3.10007 2.06958C3.05295 1.31348 2.43312 0.707 1.67617 0.676209C0.825499 0.641589 0.125 1.32095 0.125 2.16394C0.125 2.66983 0.37752 3.11651 0.763147 3.38559V13.6506C0.763147 14.003 1.04885 14.2887 1.40129 14.2887H1.82672C2.17917 14.2887 2.46487 14.003 2.46487 13.6506V11.1405C3.21764 10.8198 4.15548 10.5523 5.50763 10.5523C6.93251 10.5523 8.10925 11.4772 9.90066 11.4772C11.1814 11.4772 12.2051 11.0439 13.158 10.3908C13.3889 10.2326 13.5261 9.96983 13.5261 9.68995V3.22606C13.5261 2.60405 12.8808 2.19252 12.3167 2.45454C11.4036 2.87859 10.2838 3.30152 9.20702 3.30152V3.30152Z" fill="#FF9D0A"/>
</svg>
