<svg width="15" height="15" viewBox="0 0 15 15" fill="none" xmlns="http://www.w3.org/2000/svg">
<path d="M9.96435 3.30152C8.5395 3.30152 7.36273 2.37666 5.57132 2.37666C4.90778 2.37666 4.3134 2.49322 3.76204 2.69608C3.83845 2.49651 3.87097 2.28283 3.85739 2.06958C3.81027 1.31348 3.19045 0.707 2.4335 0.676209C1.58282 0.641589 0.882324 1.32095 0.882324 2.16394C0.882324 2.66983 1.13484 3.11651 1.52047 3.38559V13.6506C1.52047 14.003 1.80617 14.2887 2.15862 14.2887H2.58405C2.93649 14.2887 3.22219 14.003 3.22219 13.6506V11.1405C3.97497 10.8198 4.9128 10.5523 6.26496 10.5523C7.68983 10.5523 8.86657 11.4772 10.658 11.4772C11.9388 11.4772 12.9624 11.0439 13.9153 10.3908C14.1462 10.2326 14.2834 9.96983 14.2834 9.68995V3.22606C14.2834 2.60405 13.6381 2.19252 13.074 2.45454C12.161 2.87859 11.0411 3.30152 9.96435 3.30152V3.30152Z" fill="#EB4C55"/>
</svg>
